<svg version="1.1" xmlns="http://www.w3.org/2000/svg" xmlns:xlink="http://www.w3.org/1999/xlink" width="955" height="749"><defs><clipPath id="aAguIfnPdBte"><path fill="none" stroke="none" d=" M 0 0 L 955 0 L 955 749 L 0 749 L 0 0 Z"/></clipPath></defs><g transform="scale(1,1)" clip-path="url(#aAguIfnPdBte)"><g><rect fill="rgb(255,255,255)" stroke="none" x="0" y="0" width="955" height="749" fill-opacity="1"/><path fill="none" stroke="rgb(204,0,0)" paint-order="fill stroke markers" d=" M 0.49999999999994316 -765.9134278311228 L 0.49999999999994316 -759.5348270080772 L 0.49999999999994316 -759.5348270080774 L 1.4999999999999432 -753.1714677640596 L 1.4999999999999432 -753.1714677640598 L 2.499999999999943 -746.8233500990693 L 2.499999999999943 -746.8233500990698 L 3.499999999999943 -740.4904740131069 L 3.499999999999943 -740.4904740131074 L 4.499999999999943 -734.1728395061721 L 4.499999999999943 -734.1728395061723 L 5.5 -727.8704465782646 L 5.5 -727.8704465782648 L 6.5 -721.5832952293847 L 6.5 -721.5832952293852 L 7.5 -715.3113854595324 L 7.5 -715.3113854595329 L 8.5 -709.0547172687079 L 8.5 -709.0547172687084 L 9.5 -702.813290656911 L 9.5 -702.8132906569115 L 10.499999999999943 -696.5871056241419 L 10.499999999999943 -696.5871056241424 L 11.499999999999943 -690.3761621704 L 11.499999999999943 -690.3761621704004 L 12.499999999999943 -684.1804602956859 L 12.499999999999943 -684.1804602956863 L 13.499999999999943 -677.9999999999993 L 13.499999999999943 -677.9999999999998 L 14.499999999999943 -671.8347812833401 L 14.499999999999943 -671.8347812833406 L 15.499999999999943 -665.6848041457085 L 15.499999999999943 -665.684804145709 L 16.499999999999943 -659.5500685871048 L 16.499999999999943 -659.5500685871052 L 17.499999999999943 -653.4305746075283 L 17.499999999999943 -653.4305746075288 L 18.5 -647.3263222069797 L 18.5 -647.3263222069802 L 19.5 -641.2373113854585 L 19.5 -641.237311385459 L 20.5 -635.1635421429651 L 20.5 -635.1635421429655 L 21.5 -629.1050144794992 L 21.5 -629.1050144794995 L 22.5 -623.0617283950608 L 22.5 -623.061728395061 L 23.499999999999943 -617.0336838896503 L 23.499999999999943 -617.0336838896508 L 24.499999999999943 -611.020880963267 L 24.499999999999943 -611.0208809632675 L 25.499999999999943 -605.0233196159115 L 25.499999999999943 -605.0233196159118 L 26.499999999999943 -599.0409998475836 L 26.499999999999943 -599.0409998475839 L 27.499999999999943 -593.0739216582831 L 27.499999999999943 -593.0739216582836 L 28.499999999999943 -587.1220850480101 L 28.499999999999943 -587.1220850480106 L 29.499999999999943 -581.185490016765 L 29.499999999999943 -581.1854900167652 L 30.499999999999943 -575.2641365645472 L 30.499999999999943 -575.2641365645477 L 31.5 -569.3580246913573 L 31.5 -569.3580246913575 L 32.5 -563.4671543971949 L 32.5 -563.4671543971951 L 33.5 -557.5915256820597 L 33.5 -557.5915256820601 L 34.5 -551.7311385459525 L 34.5 -551.731138545953 L 35.5 -545.8859929888727 L 35.5 -545.8859929888731 L 36.49999999999994 -540.0560890108211 L 36.49999999999994 -540.0560890108213 L 37.49999999999994 -534.2414266117964 L 37.49999999999994 -534.2414266117969 L 38.49999999999994 -528.4420057917996 L 38.49999999999994 -528.4420057917998 L 39.49999999999994 -522.6578265508301 L 39.49999999999994 -522.6578265508304 L 40.49999999999994 -516.8888888888885 L 40.49999999999994 -516.8888888888887 L 41.49999999999994 -511.13519280597416 L 41.49999999999994 -511.1351928059744 L 42.49999999999994 -505.39673830208744 L 42.49999999999994 -505.39673830208767 L 43.5 -499.67352537722854 L 43.5 -499.67352537722877 L 44.5 -493.965554031397 L 44.5 -493.96555403139746 L 45.5 -488.27282426459305 L 45.5 -488.2728242645935 L 46.5 -482.5953360768167 L 46.5 -482.59533607681715 L 47.5 -476.93308946806815 L 47.5 -476.9330894680686 L 48.5 -471.2860844383472 L 48.5 -471.2860844383474 L 49.49999999999994 -465.6543209876538 L 49.49999999999994 -465.6543209876543 L 50.49999999999994 -460.03779911598804 L 50.49999999999994 -460.03779911598826 L 51.49999999999994 -454.4365188233496 L 51.49999999999994 -454.43651882334984 L 52.49999999999994 -448.8504801097389 L 52.49999999999994 -448.85048010973924 L 53.49999999999994 -443.27968297515577 L 53.49999999999994 -443.2796829751561 L 54.49999999999994 -437.7241274196001 L 54.49999999999994 -437.72412741960045 L 55.49999999999994 -432.18381344307227 L 55.49999999999994 -432.1838134430726 L 56.5 -426.6587410455717 L 56.5 -426.658741045572 L 57.5 -421.1489102270989 L 57.5 -421.14891022709924 L 58.5 -415.6543209876537 L 58.5 -415.65432098765405 L 59.5 -410.174973327236 L 59.5 -410.17497332723633 L 60.5 -404.710867245846 L 60.5 -404.7108672458463 L 61.49999999999994 -399.2620027434839 L 61.49999999999994 -399.26200274348423 L 62.49999999999994 -393.82837982014905 L 62.49999999999994 -393.8283798201494 L 63.49999999999994 -388.4099984758418 L 63.49999999999994 -388.40999847584214 L 64.49999999999994 -383.006858710562 L 64.49999999999994 -383.00685871056237 L 65.49999999999994 -377.61896052430984 L 65.49999999999994 -377.6189605243102 L 66.49999999999994 -372.24630391708547 L 66.49999999999994 -372.2463039170858 L 67.49999999999994 -366.88888888888846 L 67.49999999999994 -366.8888888888888 L 68.49999999999994 -361.54671543971904 L 68.49999999999994 -361.5467154397194 L 69.5 -356.2197835695773 L 69.5 -356.21978356957766 L 70.5 -350.90809327846307 L 70.5 -350.9080932784634 L 71.5 -345.6116445663765 L 71.5 -345.61164456637687 L 72.5 -340.33043743331757 L 72.5 -340.3304374333179 L 73.5 -335.0644718792861 L 73.5 -335.06447187928643 L 74.49999999999994 -329.81374790428265 L 74.49999999999994 -329.8137479042831 L 75.49999999999994 -324.57826550830646 L 75.49999999999994 -324.5782655083068 L 76.49999999999994 -319.35802469135774 L 76.49999999999994 -319.3580246913582 L 77.49999999999994 -314.1530254534366 L 77.49999999999994 -314.15302545343695 L 78.49999999999994 -308.9632677945433 L 78.49999999999994 -308.96326779454364 L 79.49999999999994 -303.78875171467723 L 79.49999999999994 -303.7887517146776 L 80.49999999999994 -298.62947721383887 L 80.49999999999994 -298.6294772138393 L 81.5 -293.4854442920283 L 81.5 -293.48544429202866 L 82.5 -288.35665294924513 L 82.5 -288.3566529492455 L 83.5 -283.24310318548964 L 83.5 -283.24310318549 L 84.5 -278.14479500076175 L 84.5 -278.1447950007621 L 85.5 -273.0617283950612 L 85.5 -273.06172839506155 L 86.5 -267.9939033683885 L 86.5 -267.9939033683888 L 87.49999999999994 -262.9413199207437 L 87.49999999999994 -262.94131992074404 L 88.49999999999994 -257.9039780521259 L 88.49999999999994 -257.90397805212626 L 89.49999999999994 -252.88187776253596 L 89.49999999999994 -252.88187776253642 L 90.49999999999994 -247.8750190519736 L 90.49999999999994 -247.87501905197394 L 91.49999999999994 -242.8834019204387 L 91.49999999999994 -242.88340192043904 L 92.49999999999994 -237.9070263679315 L 92.49999999999994 -237.90702636793185 L 93.49999999999994 -232.94589239445168 L 93.49999999999994 -232.94589239445213 L 94.5 -227.99999999999977 L 94.5 -228 L 95.5 -223.06934918457534 L 95.5 -223.06934918457546 L 96.5 -218.1539399481784 L 96.5 -218.1539399481785 L 97.5 -213.25377229080902 L 97.5 -213.25377229080914 L 98.5 -208.36884621246736 L 98.5 -208.36884621246747 L 99.5 -203.49916171315317 L 99.5 -203.49916171315328 L 100.49999999999994 -198.6447187928669 L 100.49999999999994 -198.64471879286714 L 101.49999999999994 -193.8055174516079 L 101.49999999999994 -193.80551745160813 L 102.49999999999994 -188.9815576893766 L 102.49999999999994 -188.9815576893768 L 103.49999999999994 -184.17283950617275 L 103.49999999999994 -184.17283950617298 L 104.49999999999994 -179.37936290199661 L 104.49999999999994 -179.37936290199673 L 105.49999999999994 -174.60112787684795 L 105.49999999999994 -174.60112787684818 L 106.49999999999994 -169.83813443072688 L 106.49999999999994 -169.8381344307271 L 107.5 -165.0903825636335 L 107.5 -165.09038256363363 L 108.5 -160.3578722755675 L 108.5 -160.35787227556773 L 109.5 -155.6406035665293 L 109.5 -155.64060356652942 L 110.5 -150.9385764365186 L 110.5 -150.93857643651882 L 111.5 -146.25179088553557 L 111.5 -146.25179088553568 L 112.5 -141.5802469135799 L 112.5 -141.58024691358014 L 113.49999999999994 -136.9239445206524 L 113.49999999999994 -136.92394452065264 L 114.49999999999994 -132.28288370675205 L 114.49999999999994 -132.28288370675216 L 115.49999999999994 -127.65706447187927 L 115.49999999999994 -127.6570644718795 L 116.49999999999994 -123.04648681603408 L 116.49999999999994 -123.0464868160343 L 117.49999999999994 -118.45115073921659 L 117.49999999999994 -118.4511507392167 L 118.49999999999994 -113.87105624142657 L 118.49999999999994 -113.87105624142669 L 119.49999999999994 -109.30620332266415 L 119.49999999999994 -109.30620332266426 L 120.5 -104.75659198292942 L 120.5 -104.75659198292954 L 121.5 -100.22222222222217 L 121.5 -100.22222222222229 L 122.5 -95.70309404054251 L 122.5 -95.70309404054262 L 123.5 -91.19920743789044 L 123.5 -91.19920743789055 L 124.5 -86.71056241426595 L 124.5 -86.71056241426606 L 125.5 -82.23715896966905 L 125.5 -82.23715896966928 L 126.49999999999994 -77.77899710410009 L 126.49999999999994 -77.77899710410031 L 127.49999999999994 -73.33607681755836 L 127.49999999999994 -73.33607681755859 L 128.49999999999994 -68.90839811004423 L 128.49999999999994 -68.90839811004435 L 129.49999999999994 -64.49596098155769 L 129.49999999999994 -64.49596098155791 L 130.49999999999994 -60.09876543209873 L 130.49999999999994 -60.09876543209896 L 131.49999999999994 -55.716811461667476 L 131.49999999999994 -55.71681146166759 L 132.5 -51.35009907026358 L 132.5 -51.35009907026381 L 133.5 -46.9986282578875 L 133.5 -46.99862825788762 L 134.5 -42.6623990245389 L 134.5 -42.66239902453913 L 135.5 -38.341411370217884 L 135.5 -38.341411370218 L 136.5 -34.035665294924456 L 136.5 -34.035665294924684 L 137.5 -29.745160798658617 L 137.5 -29.745160798658844 L 138.49999999999994 -25.469897881420707 L 138.49999999999994 -25.469897881420934 L 139.49999999999994 -21.209876543210044 L 139.49999999999994 -21.209876543210157 L 140.49999999999994 -16.96509678402697 L 140.49999999999994 -16.965096784027082 L 141.49999999999994 -12.735558603871482 L 141.49999999999994 -12.73555860387171 L 142.49999999999994 -8.521262002743583 L 142.49999999999994 -8.52126200274381 L 143.49999999999994 -4.322206980643273 L 143.49999999999994 -4.3222069806435 L 144.49999999999994 -0.1383935375705505 L 144.49999999999994 -0.13839353757077788 L 145.5 4.030178326474584 L 145.5 4.030178326474356 L 146.5 8.18350861149213 L 146.5 8.183508611491902 L 147.5 12.321597317482087 L 147.5 12.32159731748186 L 148.5 16.444444444444457 L 148.5 16.44444444444423 L 149.5 20.55204999237924 L 149.5 20.55204999237901 L 150.5 24.644413961286432 L 150.5 24.64441396128632 L 151.49999999999994 28.72153635116581 L 151.49999999999994 28.721536351165582 L 152.49999999999994 32.78341716201783 L 152.49999999999994 32.7834171620176 L 153.5 36.83005639384237 L 153.5 36.83005639384214 L 154.49999999999994 40.861454046639096 L 154.49999999999994 40.86145404663887 L 155.49999999999994 44.87761012040835 L 155.49999999999994 44.87761012040812 L 156.49999999999994 48.87852461515001 L 156.49999999999994 48.8785246151499 L 157.49999999999994 52.86419753086409 L 157.49999999999994 52.86419753086386 L 158.5 56.83462886755058 L 158.5 56.834628867550464 L 159.5 60.789818625209534 L 159.5 60.789818625209364 L 160.5 64.72976680384079 L 160.5 64.72976680384062 L 161.49999999999994 68.65447340344446 L 161.49999999999994 68.65447340344429 L 162.49999999999994 72.56393842402053 L 162.49999999999994 72.56393842402036 L 163.49999999999997 76.45816186556914 L 163.49999999999997 76.45816186556891 L 164.49999999999997 80.3371437280901 L 164.49999999999997 80.33714372808993 L 165.49999999999997 84.20088401158347 L 165.49999999999997 84.2008840115833 L 166.5 88.04938271604931 L 166.5 88.04938271604908 L 167.49999999999994 91.88263984148739 L 167.49999999999994 91.88263984148722 L 168.49999999999997 95.700655387898 L 168.49999999999997 95.70065538789783 L 169.49999999999997 99.50342935528107 L 169.49999999999997 99.50342935528084 L 170.49999999999997 103.2909617436365 L 170.49999999999997 103.29096174363627 L 171.49999999999997 107.06325255296434 L 171.49999999999997 107.06325255296412 L 172.49999999999997 110.82030178326465 L 172.49999999999997 110.82030178326448 L 173.5 114.56210943453732 L 173.5 114.56210943453715 L 174.49999999999997 118.28867550678228 L 174.49999999999997 118.28867550678211 L 175.49999999999997 121.99999999999977 L 175.49999999999997 121.9999999999996 L 176.49999999999997 125.69608291418973 L 176.49999999999997 125.69608291418956 L 177.49999999999997 129.3769242493521 L 177.49999999999997 129.37692424935193 L 178.49999999999997 133.04252400548683 L 178.49999999999997 133.04252400548665 L 179.5 136.69288218259402 L 179.5 136.69288218259385 L 180.49999999999994 140.32799878067345 L 180.49999999999994 140.32799878067323 L 181.49999999999997 143.94787379972541 L 181.49999999999997 143.94787379972524 L 182.49999999999997 147.55250723974984 L 182.49999999999997 147.55250723974967 L 183.49999999999997 151.14189910074668 L 183.49999999999997 151.1418991007465 L 184.49999999999997 154.71604938271582 L 184.49999999999997 154.71604938271565 L 185.49999999999997 158.2749580856575 L 185.49999999999997 158.27495808565732 L 186.49999999999994 161.81862520957145 L 186.49999999999994 161.81862520957128 L 187.49999999999997 165.34705075445788 L 187.49999999999997 165.3470507544577 L 188.49999999999997 168.86023472031678 L 188.49999999999997 168.8602347203166 L 189.49999999999997 172.35817710714804 L 189.49999999999997 172.35817710714798 L 190.49999999999997 175.84087791495176 L 190.49999999999997 175.84087791495165 L 191.49999999999997 179.3083371437279 L 191.49999999999997 179.30833714372778 L 192.5 182.7605547934764 L 192.5 182.76055479347627 L 193.49999999999997 186.19753086419718 L 193.49999999999997 186.19753086419712 L 194.49999999999997 189.61926535589055 L 194.49999999999997 189.6192653558905 L 195.49999999999997 193.02575826855633 L 195.49999999999997 193.02575826855627 L 196.49999999999997 196.41700960219453 L 196.49999999999997 196.4170096021944 L 197.49999999999997 199.79301935680513 L 197.49999999999997 199.79301935680502 L 198.5 203.1537875323881 L 198.5 203.15378753238804 L 199.49999999999994 206.4993141289434 L 199.49999999999994 206.49931412894335 L 200.49999999999997 209.82959914647125 L 200.49999999999997 209.82959914647114 L 201.49999999999997 213.1446425849715 L 201.49999999999997 213.1446425849714 L 202.49999999999997 216.44444444444412 L 202.49999999999997 216.44444444444406 L 203.49999999999997 219.7290047248892 L 203.49999999999997 219.72900472488914 L 204.49999999999997 222.99832342630668 L 204.49999999999997 222.99832342630663 L 205.49999999999994 226.25240054869647 L 205.49999999999994 226.25240054869636 L 206.49999999999997 229.49123609205878 L 206.49999999999997 229.49123609205867 L 207.49999999999997 232.7148300563935 L 207.49999999999997 232.7148300563934 L 208.49999999999997 235.92318244170065 L 208.49999999999997 235.9231824417006 L 209.49999999999997 239.1162932479802 L 209.49999999999997 239.11629324798008 L 210.49999999999997 242.29416247523216 L 210.49999999999997 242.29416247523204 L 211.5 245.45679012345653 L 211.5 245.45679012345641 L 212.49999999999997 248.6041761926532 L 212.49999999999997 248.60417619265309 L 213.49999999999997 251.7363206828224 L 213.49999999999997 251.73632068282234 L 214.49999999999997 254.853223593964 L 214.49999999999997 254.8532235939639 L 215.49999999999997 257.954884926078 L 215.49999999999997 257.9548849260779 L 216.49999999999997 261.04130467916445 L 216.49999999999997 261.04130467916434 L 217.5 264.1124828532233 L 217.5 264.1124828532232 L 218.49999999999994 267.16841944825444 L 218.49999999999994 267.1684194482544 L 219.49999999999997 270.2091144642581 L 219.49999999999997 270.209114464258 L 220.49999999999997 273.23456790123424 L 220.49999999999997 273.23456790123413 L 221.49999999999997 276.2447797591827 L 221.49999999999997 276.2447797591826 L 222.49999999999997 279.23975003810364 L 222.49999999999997 279.2397500381035 L 223.49999999999997 282.21947873799695 L 223.49999999999997 282.2194787379969 L 224.5 285.1839658588627 L 224.5 285.18396585886256 L 225.49999999999997 288.1332114007007 L 225.49999999999997 288.13321140070065 L 226.49999999999997 291.0672153635113 L 226.49999999999997 291.0672153635112 L 227.49999999999997 293.98597774729427 L 227.49999999999997 293.98597774729416 L 228.49999999999997 296.88949855204964 L 228.49999999999997 296.88949855204953 L 229.49999999999997 299.77777777777743 L 229.49999999999997 299.7777777777773 L 230.5 302.6508154244777 L 230.5 302.65081542447757 L 231.49999999999997 305.5086114921502 L 231.49999999999997 305.50861149215007 L 232.49999999999997 308.35116598079526 L 232.49999999999997 308.35116598079514 L 233.49999999999997 311.17847889041263 L 233.49999999999997 311.1784788904126 L 234.49999999999997 313.99055022100254 L 234.49999999999997 313.9905502210024 L 235.49999999999997 316.78737997256485 L 235.49999999999997 316.78737997256474 L 236.5 319.56896814509946 L 236.5 319.5689681450994 L 237.5 322.3353147386066 L 237.5 322.3353147386065 L 238.49999999999997 325.08641975308603 L 238.49999999999997 325.0864197530859 L 239.49999999999997 327.82228318853794 L 239.49999999999997 327.8222831885378 L 240.49999999999997 330.54290504496225 L 240.49999999999997 330.5429050449622 L 241.49999999999997 333.24828532235904 L 241.49999999999997 333.2482853223589 L 242.49999999999997 335.93842402072823 L 242.49999999999997 335.9384240207281 L 243.5 338.61332114006973 L 243.5 338.6133211400697 L 244.49999999999997 341.27297668038364 L 244.49999999999997 341.2729766803836 L 245.49999999999997 343.91739064167007 L 245.49999999999997 343.91739064166995 L 246.49999999999997 346.5465630239289 L 246.49999999999997 346.5465630239288 L 247.49999999999997 349.1604938271601 L 247.49999999999997 349.16049382716005 L 248.49999999999997 351.7591830513637 L 248.49999999999997 351.75918305136366 L 249.5 354.3426306965398 L 249.5 354.3426306965397 L 250.49999999999997 356.9108367626882 L 250.49999999999997 356.91083676268806 L 251.49999999999997 359.4638012498091 L 251.49999999999997 359.46380124980897 L 252.49999999999997 362.0015241579024 L 252.49999999999997 362.0015241579023 L 253.49999999999997 364.524005486968 L 253.49999999999997 364.52400548696795 L 254.49999999999997 367.03124523700615 L 254.49999999999997 367.03124523700603 L 255.5 369.5232434080167 L 255.5 369.5232434080166 L 256.5 371.99999999999966 L 256.5 371.99999999999955 L 257.5 374.4615150129549 L 257.5 374.4615150129548 L 258.5 376.90778844688265 L 258.5 376.9077884468826 L 259.5 379.33882030178285 L 259.5 379.3388203017828 L 260.5 381.7546105776554 L 260.5 381.7546105776554 L 261.5 384.1551592745004 L 261.5 384.1551592745004 L 262.5 386.54046639231785 L 262.5 386.54046639231785 L 263.5 388.9105319311076 L 263.5 388.9105319311076 L 264.5 391.26535589086984 L 264.5 391.26535589086984 L 265.5 393.6049382716045 L 265.5 393.60493827160445 L 266.5 395.9292790733116 L 266.5 395.9292790733115 L 267.5 398.2383782959911 L 267.5 398.238378295991 L 268.5 400.532235939643 L 268.5 400.5322359396429 L 269.5 402.8108520042672 L 269.5 402.81085200426713 L 270.5 405.0742264898639 L 270.5 405.0742264898638 L 271.5 407.322359396433 L 271.5 407.32235939643294 L 272.5 409.55525072397455 L 272.5 409.5552507239745 L 273.5 411.7729004724886 L 273.5 411.77290047248846 L 274.5 413.9753086419749 L 274.5 413.97530864197483 L 275.5 416.1624752324337 L 275.5 416.1624752324336 L 276.5 418.3344002438648 L 276.5 418.3344002438647 L 277.5 420.49108367626843 L 277.5 420.4910836762683 L 278.5 422.63252552964445 L 278.5 422.6325255296444 L 279.5 424.7587258039929 L 279.5 424.7587258039928 L 280.5 426.86968449931373 L 280.5 426.8696844993137 L 281.5 428.965401615607 L 281.5 428.96540161560694 L 282.5 431.04587715287255 L 282.5 431.04587715287255 L 283.5 433.11111111111063 L 283.5 433.11111111111063 L 284.5 435.1611034903211 L 284.5 435.1611034903211 L 285.5 437.19585429050403 L 285.5 437.19585429050403 L 286.5 439.21536351165935 L 286.5 439.21536351165935 L 287.5 441.2196311537871 L 287.5 441.2196311537871 L 288.5 443.2086572168872 L 288.5 443.2086572168872 L 289.5 445.18244170095977 L 289.5 445.1824417009597 L 290.5 447.14098460600474 L 290.5 447.1409846060047 L 291.5 449.0842859320221 L 291.5 449.08428593202206 L 292.5 451.0123456790119 L 292.5 451.01234567901184 L 293.5 452.9251638469741 L 293.5 452.9251638469741 L 294.5 454.8227404359087 L 294.5 454.8227404359087 L 295.49999999999994 456.70507544581574 L 295.49999999999994 456.7050754458157 L 296.5 458.5721688766952 L 296.5 458.5721688766951 L 297.5 460.424020728547 L 297.5 460.424020728547 L 298.5 462.2606310013713 L 298.5 462.2606310013713 L 299.5 464.08199969516795 L 299.5 464.08199969516795 L 300.5 465.8881268099371 L 300.5 465.88812680993703 L 301.5 467.67901234567864 L 301.5 467.6790123456786 L 302.5 469.45465630239244 L 302.5 469.45465630239244 L 303.5 471.2150586800788 L 303.5 471.21505868007876 L 304.5 472.96021947873754 L 304.5 472.9602194787375 L 305.5 474.69013869836874 L 305.5 474.6901386983687 L 306.5 476.4048163389723 L 306.5 476.40481633897224 L 307.5 478.10425240054826 L 307.5 478.10425240054826 L 308.49999999999994 479.78844688309664 L 308.49999999999994 479.7884468830966 L 309.5 481.45739978661743 L 309.5 481.45739978661743 L 310.5 483.11111111111063 L 310.5 483.11111111111063 L 311.5 484.7495808565763 L 311.5 484.74958085657624 L 312.5 486.3728090230144 L 312.5 486.3728090230143 L 313.5 487.9807956104248 L 313.5 487.9807956104248 L 314.49999999999994 489.57354061880767 L 314.49999999999994 489.5735406188076 L 315.5 491.15104404816293 L 315.5 491.15104404816293 L 316.5 492.7133058984906 L 316.5 492.7133058984906 L 317.5 494.26032616979074 L 317.5 494.26032616979074 L 318.5 495.7921048620633 L 318.5 495.79210486206324 L 319.5 497.3086419753082 L 319.5 497.3086419753082 L 320.5 498.8099375095255 L 320.5 498.8099375095255 L 321.5 500.2959914647153 L 321.5 500.2959914647153 L 322.5 501.76680384087746 L 322.5 501.76680384087746 L 323.5 503.22237463801207 L 323.5 503.22237463801207 L 324.5 504.66270385611904 L 324.5 504.66270385611904 L 325.5 506.0877914951985 L 325.5 506.0877914951985 L 326.5 507.49763755525026 L 326.5 507.49763755525026 L 327.5 508.8922420362745 L 327.5 508.8922420362745 L 328.5 510.2716049382712 L 328.5 510.27160493827114 L 329.5 511.6357262612402 L 329.5 511.6357262612402 L 330.5 512.9846060051817 L 330.5 512.9846060051817 L 331.5 514.3182441700956 L 331.5 514.3182441700956 L 332.5 515.636640755982 L 332.5 515.6366407559818 L 333.5 516.9397957628406 L 333.5 516.9397957628406 L 334.5 518.2277091906717 L 334.5 518.2277091906717 L 335.5 519.5003810394752 L 335.5 519.5003810394752 L 336.5 520.7578113092512 L 336.5 520.7578113092512 L 337.5 521.9999999999995 L 337.5 521.9999999999995 L 338.5 523.2269471117204 L 338.5 523.2269471117203 L 339.5 524.4386526444135 L 339.5 524.4386526444135 L 340.5 525.6351165980791 L 340.5 525.6351165980791 L 341.5 526.8163389727172 L 341.5 526.8163389727172 L 342.5 527.9823197683276 L 342.5 527.9823197683276 L 343.5 529.1330589849105 L 343.5 529.1330589849105 L 344.5 530.2685566224657 L 344.5 530.2685566224657 L 345.5 531.3888126809933 L 345.5 531.3888126809933 L 346.5 532.4938271604934 L 346.5 532.4938271604934 L 347.5 533.5836000609659 L 347.5 533.5836000609659 L 348.5 534.6581313824108 L 348.5 534.6581313824108 L 349.5 535.7174211248281 L 349.5 535.7174211248281 L 350.5 536.7614692882179 L 350.5 536.7614692882179 L 351.5 537.79027587258 L 351.5 537.79027587258 L 352.5 538.8038408779146 L 352.5 538.8038408779146 L 353.5 539.8021643042215 L 353.5 539.8021643042215 L 354.5 540.7852461515009 L 354.5 540.7852461515009 L 355.5 541.7530864197527 L 355.5 541.7530864197527 L 356.5 542.7056851089769 L 356.5 542.7056851089769 L 357.5 543.6430422191735 L 357.5 543.6430422191735 L 358.5 544.5651577503426 L 358.5 544.5651577503426 L 359.5 545.472031702484 L 359.5 545.472031702484 L 360.5 546.3636640755979 L 360.5 546.3636640755979 L 361.5 547.2400548696841 L 361.5 547.2400548696841 L 362.5 548.1012040847428 L 362.5 548.1012040847428 L 363.5 548.9471117207739 L 363.5 548.9471117207739 L 364.5 549.7777777777774 L 364.5 549.7777777777774 L 365.5 550.5932022557533 L 365.5 550.5932022557533 L 366.5 551.3933851547016 L 366.5 551.3933851547016 L 367.5 552.1783264746224 L 367.5 552.1783264746224 L 368.5 552.9480262155156 L 368.5 552.9480262155156 L 369.5 553.7024843773811 L 369.5 553.7024843773811 L 370.5 554.4417009602191 L 370.5 554.4417009602191 L 371.5 555.1656759640296 L 371.5 555.1656759640294 L 372.5 555.8744093888123 L 372.5 555.8744093888123 L 373.5 556.5679012345676 L 373.5 556.5679012345676 L 374.5 557.2461515012951 L 374.5 557.2461515012951 L 375.5 557.9091601889952 L 375.5 557.9091601889952 L 376.5 558.5569272976677 L 376.5 558.5569272976677 L 377.5 559.1894528273126 L 377.5 559.1894528273126 L 378.5 559.8067367779298 L 378.5 559.8067367779298 L 379.5 560.4087791495195 L 379.5 560.4087791495195 L 380.5 560.9955799420817 L 380.5 560.9955799420817 L 381.5 561.5671391556161 L 381.5 561.5671391556161 L 382.5 562.1234567901231 L 382.5 562.1234567901231 L 383.5 562.6645328456025 L 383.5 562.6645328456025 L 384.5 563.1903673220543 L 384.5 563.1903673220543 L 385.5 563.7009602194784 L 385.5 563.7009602194784 L 386.5 564.196311537875 L 386.5 564.196311537875 L 387.5 564.676421277244 L 387.5 564.676421277244 L 388.5 565.1412894375854 L 388.5 565.1412894375854 L 389.5 565.5909160188993 L 389.5 565.5909160188993 L 390.5 566.0253010211854 L 390.5 566.0253010211854 L 391.5 566.4444444444441 L 391.5 566.4444444444441 L 392.5 566.8483462886752 L 392.5 566.8483462886752 L 393.5 567.2370065538787 L 393.5 567.2370065538787 L 394.5 567.6104252400546 L 394.5 567.6104252400546 L 395.5 567.9686023472028 L 395.5 567.9686023472028 L 396.5 568.3115378753236 L 396.5 568.3115378753236 L 397.5 568.6392318244167 L 397.5 568.6392318244167 L 398.5 568.9516841944823 L 398.5 568.9516841944823 L 399.5 569.2488949855202 L 399.5 569.2488949855202 L 400.5 569.5308641975306 L 400.5 569.5308641975306 L 401.5 569.7975918305134 L 401.5 569.7975918305134 L 402.5 570.0490778844686 L 402.5 570.0490778844686 L 403.5 570.2853223593961 L 403.5 570.2853223593961 L 404.5 570.5063252552961 L 404.5 570.5063252552961 L 405.5 570.7120865721686 L 405.5 570.7120865721686 L 406.5 570.9026063100134 L 406.5 570.9026063100134 L 407.5 571.0778844688307 L 407.5 571.0778844688307 L 408.5 571.2379210486204 L 408.5 571.2379210486204 L 409.5 571.3827160493825 L 409.5 571.3827160493825 L 410.5 571.512269471117 L 410.5 571.512269471117 L 411.5 571.6265813138239 L 411.5 571.6265813138239 L 412.5 571.7256515775032 L 412.5 571.7256515775032 L 413.5 571.8094802621549 L 413.5 571.8094802621549 L 414.5 571.8780673677791 L 414.5 571.8780673677791 L 415.5 571.9314128943756 L 415.5 571.9314128943756 L 416.5 571.9695168419446 L 416.5 571.9695168419446 L 417.5 571.992379210486 L 417.5 571.992379210486 L 418.5 571.9999999999998 L 418.5 571.9999999999998 L 419.5 571.992379210486 L 419.5 571.992379210486 L 420.5 571.9695168419446 L 420.5 571.9695168419446 L 421.5 571.9314128943756 L 421.5 571.9314128943756 L 422.5 571.8780673677791 L 422.5 571.8780673677791 L 423.5 571.8094802621549 L 423.5 571.8094802621549 L 424.5 571.7256515775032 L 424.5 571.7256515775032 L 425.5 571.6265813138239 L 425.5 571.6265813138239 L 426.5 571.5122694711171 L 426.5 571.5122694711171 L 427.5 571.3827160493826 L 427.5 571.3827160493826 L 428.5 571.2379210486205 L 428.5 571.2379210486205 L 429.5 571.0778844688308 L 429.5 571.0778844688308 L 430.5 570.9026063100135 L 430.5 570.9026063100135 L 431.5 570.7120865721687 L 431.5 570.7120865721687 L 432.5 570.5063252552962 L 432.5 570.5063252552962 L 433.5 570.2853223593962 L 433.5 570.2853223593962 L 434.5 570.0490778844687 L 434.5 570.0490778844687 L 435.5 569.7975918305135 L 435.5 569.7975918305135 L 436.5 569.5308641975307 L 436.5 569.5308641975307 L 437.5 569.2488949855203 L 437.5 569.2488949855203 L 438.5 568.9516841944824 L 438.5 568.9516841944824 L 439.5 568.6392318244168 L 439.5 568.6392318244168 L 440.5 568.3115378753238 L 440.5 568.3115378753238 L 441.5 567.968602347203 L 441.5 567.968602347203 L 442.5 567.6104252400547 L 442.5 567.6104252400547 L 443.5 567.2370065538788 L 443.5 567.2370065538788 L 444.5 566.8483462886754 L 444.5 566.8483462886754 L 445.5 566.4444444444443 L 445.5 566.4444444444443 L 446.5 566.0253010211857 L 446.5 566.0253010211857 L 447.5 565.5909160188994 L 447.5 565.5909160188994 L 448.5 565.1412894375857 L 448.5 565.1412894375857 L 449.5 564.6764212772442 L 449.5 564.6764212772442 L 450.5 564.1963115378752 L 450.5 564.1963115378752 L 451.5 563.7009602194787 L 451.5 563.7009602194787 L 452.5 563.1903673220545 L 452.5 563.1903673220545 L 453.5 562.6645328456027 L 453.5 562.6645328456027 L 454.5 562.1234567901233 L 454.5 562.1234567901233 L 455.5 561.5671391556165 L 455.5 561.5671391556165 L 456.5 560.9955799420819 L 456.5 560.9955799420819 L 457.5 560.4087791495198 L 457.5 560.4087791495199 L 458.5 559.8067367779302 L 458.5 559.8067367779302 L 459.5 559.1894528273128 L 459.5 559.1894528273128 L 460.5 558.556927297668 L 460.5 558.556927297668 L 461.5 557.9091601889955 L 461.5 557.9091601889955 L 462.5 557.2461515012955 L 462.5 557.2461515012955 L 463.5 556.5679012345679 L 463.5 556.5679012345679 L 464.5 555.8744093888126 L 464.5 555.8744093888126 L 465.5 555.1656759640298 L 465.5 555.1656759640299 L 466.5 554.4417009602195 L 466.5 554.4417009602195 L 467.5 553.7024843773814 L 467.5 553.7024843773814 L 468.5 552.9480262155159 L 468.5 552.9480262155159 L 469.5 552.1783264746227 L 469.5 552.1783264746227 L 470.5 551.3933851547021 L 470.5 551.3933851547021 L 471.5 550.5932022557537 L 471.5 550.5932022557537 L 472.5 549.7777777777778 L 472.5 549.7777777777778 L 473.5 548.9471117207743 L 473.5 548.9471117207743 L 474.5 548.1012040847432 L 474.5 548.1012040847432 L 475.5 547.2400548696845 L 475.5 547.2400548696845 L 476.5 546.3636640755983 L 476.5 546.3636640755983 L 477.5 545.4720317024844 L 477.5 545.4720317024844 L 478.5 544.565157750343 L 478.5 544.565157750343 L 479.5 543.6430422191739 L 479.5 543.6430422191739 L 480.5 542.7056851089774 L 480.5 542.7056851089774 L 481.5 541.7530864197531 L 481.5 541.7530864197531 L 482.5 540.7852461515014 L 482.5 540.7852461515014 L 483.5 539.802164304222 L 483.5 539.8021643042221 L 484.5 538.803840877915 L 484.5 538.803840877915 L 485.5 537.7902758725804 L 485.5 537.7902758725805 L 486.5 536.7614692882183 L 486.5 536.7614692882183 L 487.5 535.7174211248287 L 487.5 535.7174211248287 L 488.5 534.6581313824113 L 488.5 534.6581313824113 L 489.5 533.5836000609664 L 489.5 533.5836000609664 L 490.5 532.493827160494 L 490.5 532.493827160494 L 491.5 531.3888126809939 L 491.5 531.3888126809939 L 492.5 530.2685566224662 L 492.5 530.2685566224662 L 493.5 529.1330589849109 L 493.5 529.133058984911 L 494.5 527.9823197683281 L 494.5 527.9823197683281 L 495.5 526.8163389727177 L 495.5 526.8163389727177 L 496.5 525.6351165980797 L 496.5 525.6351165980798 L 497.5 524.4386526444141 L 497.5 524.4386526444141 L 498.5 523.226947111721 L 498.5 523.226947111721 L 499.5 522.0000000000002 L 499.5 522.0000000000002 L 500.5 520.7578113092518 L 500.5 520.7578113092518 L 501.5 519.5003810394759 L 501.5 519.5003810394759 L 502.5 518.2277091906724 L 502.5 518.2277091906724 L 503.5 516.9397957628412 L 503.5 516.9397957628412 L 504.5 515.6366407559825 L 504.5 515.6366407559825 L 505.5 514.3182441700962 L 505.5 514.3182441700962 L 506.5 512.9846060051823 L 506.5 512.9846060051824 L 507.5 511.6357262612409 L 507.5 511.6357262612409 L 508.5 510.2716049382718 L 508.5 510.2716049382719 L 509.5 508.8922420362752 L 509.5 508.8922420362752 L 510.5 507.49763755525095 L 510.5 507.497637555251 L 511.5 506.0877914951991 L 511.5 506.08779149519916 L 512.5 504.6627038561197 L 512.5 504.6627038561198 L 513.5 503.22237463801275 L 513.5 503.22237463801275 L 514.5 501.7668038408782 L 514.5 501.7668038408782 L 515.5 500.295991464716 L 515.5 500.29599146471605 L 516.5 498.80993750952626 L 516.5 498.80993750952626 L 517.5 497.3086419753089 L 517.5 497.30864197530894 L 518.5 495.792104862064 L 518.5 495.79210486206404 L 519.5 494.2603261697915 L 519.5 494.2603261697915 L 520.5 492.7133058984914 L 520.5 492.7133058984914 L 521.5 491.1510440481637 L 521.5 491.1510440481637 L 522.5 489.5735406188084 L 522.5 489.57354061880847 L 523.5 487.98079561042556 L 523.5 487.98079561042556 L 524.5 486.37280902301507 L 524.5 486.3728090230151 L 525.5 484.74958085657704 L 525.5 484.7495808565771 L 526.5 483.1111111111114 L 526.5 483.1111111111115 L 527.5 481.4573997866182 L 527.5 481.4573997866183 L 528.5 479.78844688309744 L 528.5 479.78844688309744 L 529.5 478.10425240054906 L 529.5 478.10425240054906 L 530.5 476.4048163389731 L 530.5 476.4048163389731 L 531.5 474.69013869836954 L 531.5 474.69013869836954 L 532.5 472.9602194787384 L 532.5 472.9602194787384 L 533.5 471.21505868007966 L 533.5 471.21505868007966 L 534.5 469.45465630239335 L 534.5 469.45465630239335 L 535.5 467.6790123456794 L 535.5 467.67901234567944 L 536.5 465.8881268099379 L 536.5 465.88812680993794 L 537.5 464.08199969516886 L 537.5 464.08199969516886 L 538.5 462.26063100137213 L 538.5 462.2606310013722 L 539.5 460.42402072854793 L 539.5 460.42402072854793 L 540.5 458.5721688766961 L 540.5 458.5721688766961 L 541.5 456.70507544581665 L 541.5 456.70507544581665 L 542.5 454.8227404359096 L 542.5 454.8227404359096 L 543.5 452.925163846975 L 543.5 452.925163846975 L 544.5 451.0123456790128 L 544.5 451.0123456790128 L 545.5 449.084285932023 L 545.5 449.0842859320231 L 546.5 447.14098460600565 L 546.5 447.1409846060057 L 547.5 445.1824417009607 L 547.5 445.18244170096074 L 548.5 443.2086572168881 L 548.5 443.2086572168882 L 549.5 441.219631153788 L 549.5 441.21963115378804 L 550.5 439.2153635116603 L 550.5 439.21536351166037 L 551.5 437.195854290505 L 551.5 437.19585429050505 L 552.5 435.16110349032215 L 552.5 435.16110349032215 L 553.5 433.11111111111165 L 553.5 433.11111111111165 L 554.5 431.0458771528736 L 554.5 431.04587715287363 L 555.5 428.9654016156079 L 555.5 428.96540161560796 L 556.5 426.86968449931464 L 556.5 426.86968449931464 L 557.5 424.75872580399385 L 557.5 424.7587258039939 L 558.5 422.6325255296455 L 558.5 422.6325255296455 L 559.5 420.49108367626945 L 559.5 420.49108367626945 L 560.5 418.33440024386584 L 560.5 418.33440024386584 L 561.5 416.16247523243464 L 561.5 416.1624752324347 L 562.5 413.9753086419759 L 562.5 413.97530864197597 L 563.5 411.77290047248954 L 563.5 411.7729004724896 L 564.5 409.55525072397563 L 564.5 409.55525072397563 L 565.5 407.3223593964341 L 565.5 407.32235939643414 L 566.5 405.074226489865 L 566.5 405.07422648986505 L 567.5 402.81085200426827 L 567.5 402.8108520042683 L 568.5 400.53223593964395 L 568.5 400.532235939644 L 569.5 398.2383782959921 L 569.5 398.23837829599216 L 570.5 395.9292790733126 L 570.5 395.9292790733127 L 571.5 393.6049382716056 L 571.5 393.60493827160565 L 572.5 391.265355890871 L 572.5 391.26535589087104 L 573.5 388.9105319311087 L 573.5 388.9105319311088 L 574.5 386.54046639231893 L 574.5 386.540466392319 L 575.5 384.15515927450156 L 575.5 384.15515927450156 L 576.5 381.75461057765654 L 576.5 381.7546105776566 L 577.5 379.3388203017839 L 577.5 379.33882030178404 L 578.5 376.90778844688384 L 578.5 376.9077884468839 L 579.5 374.46151501295606 L 579.5 374.46151501295617 L 580.5 372.00000000000074 L 580.5 372.0000000000008 L 581.5 369.5232434080178 L 581.5 369.52324340801783 L 582.5 367.0312452370072 L 582.5 367.0312452370073 L 583.5 364.52400548696914 L 583.5 364.52400548696926 L 584.5 362.0015241579034 L 584.5 362.00152415790353 L 585.5 359.4638012498102 L 585.5 359.46380124981033 L 586.5 356.9108367626894 L 586.5 356.9108367626895 L 587.5 354.34263069654094 L 587.5 354.34263069654105 L 588.5 351.75918305136497 L 588.5 351.759183051365 L 589.5 349.1604938271613 L 589.5 349.1604938271614 L 590.5 346.54656302393016 L 590.5 346.5465630239302 L 591.5 343.9173906416713 L 591.5 343.91739064167143 L 592.5 341.2729766803849 L 592.5 341.272976680385 L 593.5 338.61332114007087 L 593.5 338.613321140071 L 594.5 335.93842402072937 L 594.5 335.9384240207295 L 595.5 333.24828532236023 L 595.5 333.2482853223603 L 596.5 330.54290504496345 L 596.5 330.5429050449635 L 597.5 327.82228318853925 L 597.5 327.8222831885393 L 598.5 325.0864197530873 L 598.5 325.0864197530874 L 599.5 322.3353147386078 L 599.5 322.33531473860785 L 600.5 319.5689681451007 L 600.5 319.5689681451008 L 601.5 316.7873799725661 L 601.5 316.7873799725662 L 602.5 313.99055022100384 L 602.5 313.99055022100396 L 603.5 311.178478890414 L 603.5 311.17847889041406 L 604.5 308.35116598079657 L 604.5 308.3511659807967 L 605.5 305.5086114921515 L 605.5 305.5086114921516 L 606.5 302.65081542447894 L 606.5 302.650815424479 L 607.5 299.77777777777874 L 607.5 299.7777777777788 L 608.5 296.88949855205095 L 608.5 296.889498552051 L 609.5 293.9859777472955 L 609.5 293.98597774729564 L 610.5 291.0672153635127 L 610.5 291.06721536351273 L 611.5 288.1332114007021 L 611.5 288.1332114007022 L 612.5 285.183965858864 L 612.5 285.1839658588641 L 613.5 282.21947873799826 L 613.5 282.2194787379983 L 614.5 279.23975003810506 L 614.5 279.2397500381051 L 615.5 276.2447797591841 L 615.5 276.2447797591842 L 616.5 273.23456790123566 L 616.5 273.2345679012357 L 617.5 270.2091144642596 L 617.5 270.20911446425964 L 618.5 267.1684194482559 L 618.5 267.168419448256 L 619.5 264.11248285322466 L 619.5 264.1124828532248 L 620.5 261.0413046791658 L 620.5 261.04130467916593 L 621.5 257.9548849260794 L 621.5 257.95488492607944 L 622.5 254.85322359396537 L 622.5 254.85322359396542 L 623.5 251.73632068282387 L 623.5 251.736320682824 L 624.5 248.60417619265468 L 624.5 248.60417619265473 L 625.5 245.4567901234579 L 625.5 245.456790123458 L 626.5 242.29416247523363 L 626.5 242.29416247523375 L 627.5 239.11629324798173 L 627.5 239.1162932479818 L 628.5 235.92318244170218 L 628.5 235.92318244170224 L 629.5 232.71483005639504 L 629.5 232.71483005639516 L 630.5 229.49123609206032 L 630.5 229.49123609206043 L 631.5 226.252400548698 L 631.5 226.25240054869812 L 632.5 222.9983234263081 L 632.5 222.99832342630822 L 633.5 219.72900472489067 L 633.5 219.72900472489079 L 634.5 216.4444444444456 L 634.5 216.4444444444457 L 635.5 213.14464258497298 L 635.5 213.14464258497304 L 636.5 209.82959914647284 L 636.5 209.8295991464729 L 637.5 206.499314128945 L 637.5 206.49931412894512 L 638.5 203.15378753238963 L 638.5 203.15378753238969 L 639.5 199.79301935680672 L 639.5 199.79301935680678 L 640.5 196.417009602196 L 640.5 196.41700960219612 L 641.5 193.02575826855792 L 641.5 193.02575826855804 L 642.5 189.6192653558922 L 642.5 189.6192653558923 L 643.5 186.19753086419882 L 643.5 186.19753086419894 L 644.5 182.76055479347792 L 644.5 182.76055479347804 L 645.5 179.30833714372937 L 645.5 179.3083371437295 L 646.5 175.8408779149533 L 646.5 175.84087791495335 L 647.5 172.3581771071497 L 647.5 172.3581771071498 L 648.5 168.86023472031837 L 648.5 168.86023472031854 L 649.5 165.34705075445953 L 649.5 165.3470507544597 L 650.5 161.81862520957304 L 650.5 161.8186252095732 L 651.5 158.27495808565897 L 651.5 158.2749580856592 L 652.5 154.71604938271736 L 652.5 154.71604938271753 L 653.5 151.14189910074828 L 653.5 151.14189910074845 L 654.5 147.55250723975144 L 654.5 147.55250723975166 L 655.5 143.94787379972706 L 655.5 143.94787379972723 L 656.5 140.3279987806751 L 656.5 140.32799878067527 L 657.5 136.6928821825955 L 657.5 136.69288218259567 L 658.5 133.0425240054883 L 658.5 133.04252400548847 L 659.5 129.37692424935364 L 659.5 129.3769242493538 L 660.5 125.69608291419144 L 660.5 125.6960829141916 L 661.5 122.00000000000142 L 661.5 122.00000000000165 L 662.5 118.28867550678399 L 662.5 118.28867550678416 L 663.5 114.56210943453891 L 663.5 114.56210943453908 L 664.5 110.82030178326619 L 664.5 110.82030178326636 L 665.5 107.06325255296593 L 665.5 107.0632525529661 L 666.5 103.29096174363826 L 666.5 103.29096174363843 L 667.5 99.50342935528272 L 667.5 99.50342935528289 L 668.5 95.7006553878997 L 668.5 95.70065538789987 L 669.5 91.8826398414891 L 669.5 91.88263984148927 L 670.5 88.0493827160509 L 670.5 88.04938271605107 L 671.5 84.20088401158506 L 671.5 84.20088401158529 L 672.5 80.3371437280918 L 672.5 80.33714372809197 L 673.5 76.4581618655709 L 673.5 76.45816186557107 L 674.5 72.5639384240223 L 674.5 72.56393842402252 L 675.5 68.65447340344622 L 675.5 68.65447340344645 L 676.5 64.7297668038425 L 676.5 64.72976680384267 L 677.5 60.789818625211126 L 677.5 60.789818625211296 L 678.5 56.83462886755228 L 678.5 56.83462886755251 L 679.5 52.86419753086591 L 679.5 52.864197530866136 L 680.5 48.87852461515183 L 680.5 48.878524615151946 L 681.5 44.87761012041017 L 681.5 44.877610120410395 L 682.5 40.861454046640915 L 682.5 40.86145404664114 L 683.5 36.830056393844075 L 683.5 36.83005639384419 L 684.5 32.783417162019646 L 684.5 32.78341716201987 L 685.5 28.72153635116763 L 685.5 28.721536351167856 L 686.5 24.644413961288137 L 686.5 24.644413961288365 L 687.5 20.552049992380944 L 687.5 20.55204999238117 L 688.5 16.444444444446276 L 688.5 16.44444444444639 L 689.5 12.321597317483906 L 689.5 12.32159731748402 L 690.5 8.183508611493949 L 690.5 8.183508611494062 L 691.5 4.030178326476403 L 691.5 4.030178326476516 L 692.5 -0.13839353756861783 L 692.5 -0.13839353756839046 L 693.5 -4.32220698064134 L 693.5 -4.322206980641113 L 694.5 -8.52126200274165 L 694.5 -8.521262002741423 L 695.5 -12.73555860386955 L 695.5 -12.735558603869322 L 696.5 -16.965096784024922 L 696.5 -16.96509678402481 L 697.5 -21.20987654320811 L 697.5 -21.209876543207884 L 698.5 -25.469897881418547 L 698.5 -25.469897881418433 L 699.5 -29.745160798656798 L 699.5 -29.74516079865657 L 700.5 -34.03566529492264 L 700.5 -34.03566529492241 L 701.5 -38.34141137021595 L 701.5 -38.34141137021584 L 702.5 -42.66239902453708 L 702.5 -42.66239902453685 L 703.5 -46.99862825788557 L 703.5 -46.99862825788546 L 704.5 -51.35009907026176 L 704.5 -51.350099070261535 L 705.5 -55.71681146166543 L 705.5 -55.7168114616652 L 706.5 -60.098765432096684 L 706.5 -60.09876543209657 L 707.5 -64.49596098155564 L 707.5 -64.49596098155553 L 708.5 -68.90839811004219 L 708.5 -68.90839811004196 L 709.5 -73.33607681755632 L 709.5 -73.33607681755609 L 710.5 -77.77899710409793 L 710.5 -77.77899710409781 L 711.5 -82.23715896966723 L 711.5 -82.23715896966701 L 712.5 -86.71056241426402 L 712.5 -86.7105624142639 L 713.5 -91.1992074378885 L 713.5 -91.19920743788828 L 714.5 -95.70309404054046 L 714.5 -95.70309404054035 L 715.5 -100.22222222222013 L 715.5 -100.22222222222001 L 716.5 -104.75659198292738 L 716.5 -104.75659198292726 L 717.5 -109.30620332266199 L 717.5 -109.30620332266176 L 718.5 -113.87105624142441 L 718.5 -113.8710562414243 L 719.5 -118.45115073921443 L 719.5 -118.45115073921431 L 720.5 -123.04648681603203 L 720.5 -123.0464868160318 L 721.5 -127.65706447187722 L 721.5 -127.65706447187699 L 722.5 -132.28288370674989 L 722.5 -132.28288370674966 L 723.5 -136.92394452065014 L 723.5 -136.92394452065002 L 724.5 -141.58024691357798 L 724.5 -141.58024691357787 L 725.5 -146.25179088553352 L 725.5 -146.2517908855333 L 726.5 -150.93857643651654 L 726.5 -150.93857643651643 L 727.5 -155.64060356652726 L 727.5 -155.64060356652703 L 728.5 -160.35787227556557 L 728.5 -160.35787227556534 L 729.5 -165.09038256363147 L 729.5 -165.09038256363124 L 730.5 -169.83813443072472 L 730.5 -169.8381344307245 L 731.5 -174.60112787684568 L 731.5 -174.60112787684557 L 732.5 -179.37936290199434 L 732.5 -179.37936290199423 L 733.5 -184.17283950617048 L 733.5 -184.17283950617036 L 734.5 -188.9815576893743 L 734.5 -188.98155768937409 L 735.5 -193.80551745160574 L 735.5 -193.8055174516055 L 736.5 -198.64471879286464 L 736.5 -198.64471879286452 L 737.5 -203.499161713151 L 737.5 -203.49916171315078 L 738.5 -208.3688462124652 L 738.5 -208.36884621246497 L 739.5 -213.25377229080698 L 739.5 -213.25377229080675 L 740.5 -218.15393994817623 L 740.5 -218.153939948176 L 741.5 -223.06934918457318 L 741.5 -223.06934918457296 L 742.5 -227.9999999999976 L 742.5 -227.9999999999975 L 743.5 -232.94589239444963 L 743.5 -232.9458923944493 L 744.5 -237.90702636792935 L 744.5 -237.907026367929 L 745.5 -242.88340192043654 L 745.5 -242.8834019204362 L 746.5 -247.87501905197144 L 746.5 -247.8750190519711 L 747.5 -252.88187776253392 L 747.5 -252.88187776253358 L 748.5 -257.90397805212376 L 748.5 -257.9039780521234 L 749.5 -262.9413199207414 L 749.5 -262.9413199207411 L 750.5 -267.9939033683863 L 750.5 -267.993903368386 L 751.5 -273.0617283950595 L 751.5 -273.06172839505905 L 752.5 -278.14479500075936 L 752.5 -278.144795000759 L 753.5 -283.2431031854877 L 753.5 -283.24310318548737 L 754.5 -288.35665294924297 L 754.5 -288.35665294924263 L 755.5 -293.4854442920263 L 755.5 -293.48544429202593 L 756.5 -298.6294772138368 L 756.5 -298.6294772138365 L 757.5 -303.7887517146751 L 757.5 -303.78875171467473 L 758.5 -308.9632677945409 L 758.5 -308.96326779454057 L 759.5 -314.15302545343445 L 759.5 -314.1530254534341 L 760.5 -319.35802469135547 L 760.5 -319.3580246913551 L 761.5 -324.5782655083042 L 761.5 -324.57826550830384 L 762.5 -329.8137479042804 L 762.5 -329.81374790428004 L 763.5 -335.0644718792837 L 763.5 -335.06447187928336 L 764.5 -340.33043743331564 L 764.5 -340.3304374333153 L 765.5 -345.61164456637414 L 765.5 -345.6116445663738 L 766.5 -350.90809327846125 L 766.5 -350.9080932784609 L 767.5 -356.21978356957504 L 767.5 -356.2197835695746 L 768.5 -361.5467154397171 L 768.5 -361.54671543971676 L 769.5 -366.8888888888862 L 769.5 -366.88888888888584 L 770.5 -372.2463039170831 L 770.5 -372.24630391708274 L 771.5 -377.61896052430757 L 771.5 -377.6189605243072 L 772.5 -383.00685871055964 L 772.5 -383.0068587105593 L 773.5 -388.4099984758393 L 773.5 -388.40999847583896 L 774.5 -393.82837982014655 L 774.5 -393.8283798201462 L 775.5 -399.2620027434816 L 775.5 -399.2620027434813 L 776.5 -404.7108672458435 L 776.5 -404.71086724584313 L 777.5 -410.17497332723406 L 777.5 -410.1749733272337 L 778.5 -415.6543209876513 L 778.5 -415.654320987651 L 779.5 -421.14891022709685 L 779.5 -421.1489102270965 L 780.5 -426.6587410455694 L 780.5 -426.65874104556906 L 781.5 -432.18381344306977 L 781.5 -432.1838134430694 L 782.5 -437.7241274195977 L 782.5 -437.7241274195974 L 783.5 -443.27968297515326 L 783.5 -443.2796829751529 L 784.5 -448.8504801097364 L 784.5 -448.85048010973605 L 785.5 -454.43651882334734 L 785.5 -454.4365188233469 L 786.5 -460.03779911598554 L 786.5 -460.0377991159851 L 787.5 -465.6543209876513 L 787.5 -465.6543209876511 L 788.5 -471.2860844383449 L 788.5 -471.2860844383447 L 789.5 -476.93308946806565 L 789.5 -476.9330894680654 L 790.5 -482.59533607681465 L 790.5 -482.5953360768142 L 791.5 -488.27282426459055 L 791.5 -488.2728242645901 L 792.5 -493.96555403139496 L 792.5 -493.9655540313945 L 793.5 -499.67352537722604 L 793.5 -499.6735253772256 L 794.5 -505.39673830208494 L 794.5 -505.3967383020845 L 795.5 -511.13519280597166 L 795.5 -511.1351928059712 L 796.5 -516.8888888888857 L 796.5 -516.8888888888853 L 797.5 -522.6578265508276 L 797.5 -522.6578265508272 L 798.5 -528.4420057917969 L 798.5 -528.4420057917964 L 799.5 -534.2414266117939 L 799.5 -534.2414266117935 L 800.5 -540.0560890108184 L 800.5 -540.0560890108179 L 801.5 -545.8859929888706 L 801.5 -545.8859929888702 L 802.5 -551.7311385459502 L 802.5 -551.73113854595 L 803.5 -557.5915256820576 L 803.5 -557.5915256820572 L 804.5 -563.4671543971922 L 804.5 -563.4671543971917 L 805.5 -569.3580246913548 L 805.5 -569.3580246913543 L 806.5 -575.2641365645447 L 806.5 -575.2641365645445 L 807.5 -581.1854900167623 L 807.5 -581.1854900167621 L 808.5 -587.1220850480076 L 808.5 -587.1220850480072 L 809.5 -593.0739216582806 L 809.5 -593.0739216582801 L 810.5 -599.0409998475809 L 810.5 -599.0409998475805 L 811.5 -605.0233196159088 L 811.5 -605.0233196159086 L 812.5 -611.0208809632645 L 812.5 -611.0208809632641 L 813.5 -617.0336838896478 L 813.5 -617.0336838896474 L 814.5 -623.0617283950585 L 814.5 -623.0617283950583 L 815.5 -629.1050144794967 L 815.5 -629.1050144794965 L 816.5 -635.1635421429628 L 816.5 -635.1635421429623 L 817.5 -641.237311385456 L 817.5 -641.2373113854555 L 818.5 -647.326322206977 L 818.5 -647.3263222069768 L 819.5 -653.4305746075258 L 819.5 -653.4305746075254 L 820.5 -659.550068587102 L 820.5 -659.5500685871018 L 821.5 -665.684804145706 L 821.5 -665.6848041457056 L 822.5 -671.8347812833374 L 822.5 -671.8347812833372 L 823.5 -677.9999999999966 L 823.5 -677.9999999999961 L 824.5 -684.1804602956831 L 824.5 -684.1804602956829 L 825.5 -690.3761621703975 L 825.5 -690.376162170397 L 826.5 -696.5871056241392 L 826.5 -696.5871056241388 L 827.5 -702.8132906569087 L 827.5 -702.8132906569083 L 828.5 -709.0547172687056 L 828.5 -709.0547172687052 L 829.5 -715.3113854595299 L 829.5 -715.3113854595294 L 830.5 -721.583295229382 L 830.5 -721.5832952293815 L 831.5 -727.8704465782616 L 831.5 -727.8704465782614 L 832.5 -734.1728395061691 L 832.5 -734.1728395061687 L 833.5 -740.4904740131042 L 833.5 -740.4904740131037 L 834.5 -746.8233500990666 L 834.5 -746.8233500990661 L 835.5 -753.1714677640566 L 835.5 -753.1714677640564 L 836.5 -759.5348270080742 L 836.5 -759.534827008074 L 837.5 -765.9134278311196 L 837.5 -765.9134278311192 L 838.5 -772.3072702331924 L 838.5 -772.307270233192 L 839.5 -778.716354214293 L 839.5 -778.7163542142926 L 840.5 -785.1406797744212 L 840.5 -785.1406797744207 L 841.5 -791.5802469135765 L 841.5 -791.5802469135763 L 842.5 -798.0350556317594 L 842.5 -798.035055631759 L 843.5 -804.5051059289704 L 843.5 -804.5051059289699 L 844.5 -810.9903978052087 L 844.5 -810.9903978052082 L 845.5 -817.4909312604746 L 845.5 -817.4909312604741 L 846.5 -824.0067062947683 L 846.5 -824.0067062947678 L 847.5 -830.5377229080893 L 847.5 -830.5377229080889 L 848.5 -837.083981100438 L 848.5 -837.0839811004378 L 849.5 -843.6454808718145 L 849.5 -843.645480871814 L 850.5 -850.2222222222183 L 850.5 -850.2222222222181 L 851.5 -856.8142051516497 L 851.5 -856.8142051516495 L 852.5 -863.421429660109 L 852.5 -863.4214296601085 L 853.5 -870.0438957475956 L 853.5 -870.0438957475953 L 854.5 -876.68160341411 L 854.5 -876.6816034141095 L 855.5 -883.3345526596513 L 855.5 -883.3345526596509 L 856.5 -890.0027434842207 L 856.5 -890.0027434842202 L 857.5 -896.6861758878179 L 857.5 -896.6861758878174 L 858.5 -903.3848498704424 L 858.5 -903.3848498704422 L 859.5 -910.0987654320945 L 859.5 -910.0987654320943 L 860.5 -916.8279225727745 L 860.5 -916.827922572774 L 861.5 -923.5723212924818 L 861.5 -923.5723212924813 L 862.5 -930.3319615912169 L 862.5 -930.3319615912164 L 863.5 -937.1068434689794 L 863.5 -937.1068434689789 L 864.5 -943.8969669257694 L 864.5 -943.8969669257692 L 865.5 -950.7023319615873 L 865.5 -950.7023319615869 L 866.5 -957.5229385764324 L 866.5 -957.5229385764321 L 867.5 -964.3587867703054 L 867.5 -964.358786770305 L 868.5 -971.2098765432054 L 868.5 -971.2098765432049 L 869.5 -978.0762078951334 L 869.5 -978.0762078951332 L 870.5 -984.9577808260892 L 870.5 -984.9577808260888 L 871.5 -991.8545953360724 L 871.5 -991.8545953360722 L 872.5 -998.7666514250832 L 872.5 -998.7666514250827 L 873.5 -1005.6939490931215 L 873.5 -1005.6939490931213 L 874.5 -1012.6364883401877 L 874.5 -1012.6364883401875 L 875.5 -1019.5942691662813 L 875.5 -1019.594269166281 L 876.5 -1026.5672915714024 L 876.5 -1026.5672915714022 L 877.5 -1033.5555555555513 L 877.5 -1033.5555555555507 L 878.5 -1040.5590611187279 L 878.5 -1040.5590611187272 L 879.5 -1047.5778082609318 L 879.5 -1047.577808260931 L 880.5 -1054.6117969821635 L 880.5 -1054.6117969821628 L 881.5 -1061.6610272824219 L 881.5 -1061.6610272824212 L 882.5 -1068.7254991617085 L 882.5 -1068.7254991617078 L 883.5 -1075.8052126200232 L 883.5 -1075.8052126200223 L 884.5 -1082.9001676573648 L 884.5 -1082.9001676573641 L 885.5 -1090.0103642737342 L 885.5 -1090.0103642737336 L 886.5 -1097.1358024691315 L 886.5 -1097.1358024691306 L 887.5 -1104.2764822435558 L 887.5 -1104.2764822435552 L 888.5 -1111.4324035970083 L 888.5 -1111.4324035970076 L 889.5 -1118.6035665294883 L 889.5 -1118.6035665294876 L 890.5 -1125.7899710409956 L 890.5 -1125.789971040995 L 891.5 -1132.9916171315306 L 891.5 -1132.99161713153 L 892.5 -1140.2085048010929 L 892.5 -1140.2085048010922 L 893.5 -1147.4406340496832 L 893.5 -1147.4406340496826 L 894.5 -1154.6880048773007 L 894.5 -1154.6880048772998 L 895.5 -1161.950617283946 L 895.5 -1161.9506172839451 L 896.5 -1169.2284712696187 L 896.5 -1169.228471269618 L 897.5 -1176.5215668343194 L 897.5 -1176.5215668343187 L 898.5 -1183.8299039780475 L 898.5 -1183.8299039780468 L 899.5 -1191.1534827008031 L 899.5 -1191.1534827008024 L 900.5 -1198.4923030025866 L 900.5 -1198.492303002586 L 901.5 -1205.8463648833972 L 901.5 -1205.8463648833965 L 902.5 -1213.2156683432358 L 902.5 -1213.2156683432352 L 903.5 -1220.6002133821019 L 903.5 -1220.6002133821012 L 904.5 -1227.9999999999957 L 904.5 -1227.999999999995 L 905.5 -1235.4150281969166 L 905.5 -1235.415028196916 L 906.5 -1242.845297972865 L 906.5 -1242.845297972864 L 907.5 -1250.2908093278413 L 907.5 -1250.2908093278404 L 908.5 -1257.7515622618455 L 908.5 -1257.7515622618448 L 909.5 -1265.2275567748768 L 909.5 -1265.2275567748761 L 910.5 -1272.7187928669362 L 910.5 -1272.7187928669355 L 911.5 -1280.2252705380229 L 911.5 -1280.2252705380222 L 912.5 -1287.7469897881372 L 912.5 -1287.7469897881363 L 913.5 -1295.2839506172793 L 913.5 -1295.2839506172784 L 914.5 -1302.8361530254488 L 914.5 -1302.836153025448 L 915.5 -1310.4035970126456 L 915.5 -1310.403597012645 L 916.5 -1317.9862825788705 L 916.5 -1317.9862825788698 L 917.5 -1325.5842097241227 L 917.5 -1325.5842097241218 L 918.5 -1333.1973784484026 L 918.5 -1333.1973784484019 L 919.5 -1340.8257887517093 L 919.5 -1340.8257887517086 L 920.5 -1348.4694406340443 L 920.5 -1348.4694406340436 L 921.5 -1356.1283340954071 L 921.5 -1356.1283340954064 L 922.5 -1363.8024691357973 L 922.5 -1363.8024691357964 L 923.5 -1371.491845755215 L 923.5 -1371.4918457552144 L 924.5 -1379.1964639536604 L 924.5 -1379.1964639536598 L 925.5 -1386.9163237311336 L 925.5 -1386.916323731133 L 926.5 -1394.651425087634 L 926.5 -1394.6514250876332 L 927.5 -1402.4017680231623 L 927.5 -1402.4017680231614 L 928.5 -1410.167352537718 L 928.5 -1410.167352537717 L 929.5 -1417.948178631301 L 929.5 -1417.9481786313004 L 930.5 -1425.7442463039122 L 930.5 -1425.7442463039115 L 931.5 -1433.5555555555507 L 931.5 -1433.55555555555 L 932.5 -1441.382106386216 L 932.5 -1441.3821063862154 L 933.5 -1449.2238987959097 L 933.5 -1449.223898795909 L 934.5 -1457.0809327846312 L 934.5 -1457.0809327846305 L 935.5 -1464.9532083523798 L 935.5 -1464.953208352379 L 936.5 -1472.8407254991562 L 936.5 -1472.8407254991555 L 937.5 -1480.7434842249606 L 937.5 -1480.7434842249597 L 938.5 -1488.661484529792 L 938.5 -1488.661484529791 L 939.5 -1496.5947264136514 L 939.5 -1496.5947264136505 L 940.5 -1504.543209876538 L 940.5 -1504.5432098765375 L 941.5 -1512.5069349184525 L 941.5 -1512.5069349184516 L 942.5 -1520.4859015393943 L 942.5 -1520.4859015393934 L 943.5 -1528.480109739364 L 943.5 -1528.4801097393631 L 944.5 -1536.489559518361 L 944.5 -1536.4895595183605 L 945.5 -1544.514250876385 L 945.5 -1544.5142508763845 L 946.5 -1552.5541838134375 L 946.5 -1552.5541838134366 L 947.5 -1560.6093583295171 L 947.5 -1560.6093583295167 L 948.5 -1568.6797744246248 L 948.5 -1568.679774424624 L 949.5 -1576.7654320987601 L 949.5 -1576.7654320987592 L 950.5 -1584.8663313519226 L 950.5 -1584.8663313519216 L 951.5 -1592.982472184113 L 951.5 -1592.982472184112 L 952.5 -1601.1138545953306 L 952.5 -1601.1138545953297 L 953.5 -1609.2604785855758 L 953.5 -1609.2604785855754 L 954.5 -1617.4223441548486 L 954.5 -1617.4223441548481 L 955.5 -1625.5994513031494" stroke-opacity="0.6980392156862745" stroke-linecap="round" stroke-linejoin="round" stroke-miterlimit="10" stroke-width="6.5"/><path fill="none" stroke="rgb(0,0,0)" paint-order="fill stroke markers" d=" M 13.499999999999716 371.99999999999966 L 823.5000000000007 371.99999999999966" stroke-opacity="0.6980392156862745" stroke-linecap="round" stroke-linejoin="round" stroke-miterlimit="10" stroke-width="2.5"/><path fill="none" stroke="rgb(0,0,0)" paint-order="fill stroke markers" d=" M 13.499999999999716 371.99999999999966 L 823.5000000000007 371.99999999999966" stroke-opacity="0.6980392156862745" stroke-linecap="round" stroke-linejoin="round" stroke-miterlimit="10" stroke-width="2.5"/><path fill="none" stroke="rgb(0,0,0)" paint-order="fill stroke markers" d=" M 418.5000000000002 571.9999999999998 L 499.50000000000034 571.9999999999998" stroke-opacity="0.6980392156862745" stroke-linecap="round" stroke-linejoin="round" stroke-miterlimit="10" stroke-width="2.5"/><path fill="none" stroke="rgb(0,0,0)" paint-order="fill stroke markers" d=" M 499.50000000000034 571.9999999999998 L 499.5000000000003 521.9999999999998" stroke-opacity="0.6980392156862745" stroke-linecap="round" stroke-linejoin="round" stroke-miterlimit="10" stroke-width="2.5"/><path fill="none" stroke="rgb(0,0,0)" paint-order="fill stroke markers" d=" M 499.5000000000003 521.9999999999998 L 499.50000000000034 571.9999999999998" stroke-opacity="0.6980392156862745" stroke-linecap="round" stroke-linejoin="round" stroke-miterlimit="10" stroke-width="2.5"/><path fill="none" stroke="rgb(0,0,0)" paint-order="fill stroke markers" d=" M 337.5000000000001 71.99999999999955 L 337.5000000000001 721.9999999999998" stroke-opacity="0.6980392156862745" stroke-linecap="round" stroke-linejoin="round" stroke-miterlimit="10" stroke-width="2.5"/><path fill="none" stroke="rgb(0,0,0)" paint-order="fill stroke markers" d=" M 337.5000000000001 71.99999999999955 L 337.5000000000001 721.9999999999998" stroke-opacity="0.6980392156862745" stroke-linecap="round" stroke-linejoin="round" stroke-miterlimit="10" stroke-width="2.5"/><path fill="none" stroke="rgb(0,0,0)" paint-order="fill stroke markers" d=" M 13.499999999999716 371.99999999999966 L 806.5000000000007 371.99999999999966" stroke-opacity="0.6980392156862745" stroke-linecap="round" stroke-linejoin="round" stroke-miterlimit="10" stroke-width="2.5"/><path fill="rgb(0,0,0)" stroke="none" paint-order="stroke fill markers" fill-rule="evenodd" d=" M 823.5000000000007 371.99999999999966 L 806.5000000000007 376.24999999999966 L 806.5000000000007 367.74999999999966 Z" fill-opacity="0.6980392156862745"/><path fill="none" stroke="rgb(0,0,0)" paint-order="fill stroke markers" d=" M 13.499999999999716 371.99999999999966 L 806.5000000000007 371.99999999999966" stroke-opacity="0.6980392156862745" stroke-linecap="round" stroke-linejoin="round" stroke-miterlimit="10" stroke-width="2.5"/><path fill="rgb(0,0,0)" stroke="none" paint-order="stroke fill markers" fill-rule="evenodd" d=" M 823.5000000000007 371.99999999999966 L 806.5000000000007 376.24999999999966 L 806.5000000000007 367.74999999999966 Z" fill-opacity="0.6980392156862745"/><path fill="none" stroke="rgb(0,0,0)" paint-order="fill stroke markers" d=" M 337.5000000000001 721.9999999999998 L 337.5000000000001 88.99999999999955" stroke-opacity="0.6980392156862745" stroke-linecap="round" stroke-linejoin="round" stroke-miterlimit="10" stroke-width="2.5"/><path fill="rgb(0,0,0)" stroke="none" paint-order="stroke fill markers" fill-rule="evenodd" d=" M 337.5000000000001 71.99999999999955 L 341.7500000000001 88.99999999999955 L 333.2500000000001 88.99999999999955 Z" fill-opacity="0.6980392156862745"/><path fill="rgb(68,68,68)" stroke="none" paint-order="stroke fill markers" d=" M 265.5 371.99999999999966 C 265.5 376.9705627484768 261.47056274847716 380.99999999999966 256.5 380.99999999999966 C 251.52943725152286 380.99999999999966 247.5 376.9705627484768 247.5 371.99999999999966 C 247.5 367.0294372515225 251.52943725152286 362.99999999999966 256.5 362.99999999999966 C 261.47056274847716 362.99999999999966 265.5 367.0294372515225 265.5 371.99999999999966 Z" fill-opacity="1"/><path fill="none" stroke="rgb(0,0,0)" paint-order="fill stroke markers" d=" M 265.5 371.99999999999966 C 265.5 376.9705627484768 261.47056274847716 380.99999999999966 256.5 380.99999999999966 C 251.52943725152286 380.99999999999966 247.5 376.9705627484768 247.5 371.99999999999966 C 247.5 367.0294372515225 251.52943725152286 362.99999999999966 256.5 362.99999999999966 C 261.47056274847716 362.99999999999966 265.5 367.0294372515225 265.5 371.99999999999966 Z" stroke-opacity="1" stroke-linecap="round" stroke-linejoin="round" stroke-miterlimit="10"/><path fill="rgb(68,68,68)" stroke="none" paint-order="stroke fill markers" d=" M 589.5000000000005 371.99999999999966 C 589.5000000000005 376.9705627484768 585.4705627484776 380.99999999999966 580.5000000000005 380.99999999999966 C 575.5294372515233 380.99999999999966 571.5000000000005 376.9705627484768 571.5000000000005 371.99999999999966 C 571.5000000000005 367.0294372515225 575.5294372515233 362.99999999999966 580.5000000000005 362.99999999999966 C 585.4705627484776 362.99999999999966 589.5000000000005 367.0294372515225 589.5000000000005 371.99999999999966 Z" fill-opacity="1"/><path fill="none" stroke="rgb(0,0,0)" paint-order="fill stroke markers" d=" M 589.5000000000005 371.99999999999966 C 589.5000000000005 376.9705627484768 585.4705627484776 380.99999999999966 580.5000000000005 380.99999999999966 C 575.5294372515233 380.99999999999966 571.5000000000005 376.9705627484768 571.5000000000005 371.99999999999966 C 571.5000000000005 367.0294372515225 575.5294372515233 362.99999999999966 580.5000000000005 362.99999999999966 C 585.4705627484776 362.99999999999966 589.5000000000005 367.0294372515225 589.5000000000005 371.99999999999966 Z" stroke-opacity="1" stroke-linecap="round" stroke-linejoin="round" stroke-miterlimit="10"/><path fill="rgb(68,68,68)" stroke="none" paint-order="stroke fill markers" d=" M 427.5000000000002 571.9999999999998 C 427.5000000000002 576.9705627484769 423.4705627484774 580.9999999999998 418.5000000000002 580.9999999999998 C 413.52943725152306 580.9999999999998 409.5000000000002 576.9705627484769 409.5000000000002 571.9999999999998 C 409.5000000000002 567.0294372515226 413.52943725152306 562.9999999999998 418.5000000000002 562.9999999999998 C 423.4705627484774 562.9999999999998 427.5000000000002 567.0294372515226 427.5000000000002 571.9999999999998 Z" fill-opacity="1"/><path fill="none" stroke="rgb(0,0,0)" paint-order="fill stroke markers" d=" M 427.5000000000002 571.9999999999998 C 427.5000000000002 576.9705627484769 423.4705627484774 580.9999999999998 418.5000000000002 580.9999999999998 C 413.52943725152306 580.9999999999998 409.5000000000002 576.9705627484769 409.5000000000002 571.9999999999998 C 409.5000000000002 567.0294372515226 413.52943725152306 562.9999999999998 418.5000000000002 562.9999999999998 C 423.4705627484774 562.9999999999998 427.5000000000002 567.0294372515226 427.5000000000002 571.9999999999998 Z" stroke-opacity="1" stroke-linecap="round" stroke-linejoin="round" stroke-miterlimit="10"/><path fill="rgb(68,68,68)" stroke="none" paint-order="stroke fill markers" d=" M 346.5000000000001 521.9999999999998 C 346.5000000000001 526.9705627484769 342.4705627484773 530.9999999999998 337.5000000000001 530.9999999999998 C 332.52943725152295 530.9999999999998 328.5000000000001 526.9705627484769 328.5000000000001 521.9999999999998 C 328.5000000000001 517.0294372515226 332.52943725152295 512.9999999999998 337.5000000000001 512.9999999999998 C 342.4705627484773 512.9999999999998 346.5000000000001 517.0294372515226 346.5000000000001 521.9999999999998 Z" fill-opacity="1"/><path fill="none" stroke="rgb(0,0,0)" paint-order="fill stroke markers" d=" M 346.5000000000001 521.9999999999998 C 346.5000000000001 526.9705627484769 342.4705627484773 530.9999999999998 337.5000000000001 530.9999999999998 C 332.52943725152295 530.9999999999998 328.5000000000001 526.9705627484769 328.5000000000001 521.9999999999998 C 328.5000000000001 517.0294372515226 332.52943725152295 512.9999999999998 337.5000000000001 512.9999999999998 C 342.4705627484773 512.9999999999998 346.5000000000001 517.0294372515226 346.5000000000001 521.9999999999998 Z" stroke-opacity="1" stroke-linecap="round" stroke-linejoin="round" stroke-miterlimit="10"/><g transform="scale(51,51)"><g transform="translate(3.8823529411764706,8.254529411764706)"><path fill="rgb(0,0,0)" stroke="none" paint-order="stroke fill markers" d=" M 0.088 -0.059000000000000004 L 0.088 -0.059000000000000004 L 0.146 -0.29 Q 0.162 -0.354 0.162 -0.374 Q 0.162 -0.42 0.131 -0.42 Q 0.09 -0.42 0.064 -0.325 Q 0.061 -0.314 0.058 -0.301 Q 0.047 -0.279 0.041 -0.278 Q 0.029 -0.278 0.029 -0.28800000000000003 Q 0.029 -0.304 0.048 -0.356 Q 0.054 -0.373 0.06 -0.385 Q 0.084 -0.434 0.12 -0.441 Q 0.127 -0.442 0.134 -0.442 Q 0.188 -0.442 0.214 -0.397 Q 0.224 -0.378 0.226 -0.355 Q 0.29 -0.442 0.382 -0.442 Q 0.433 -0.442 0.464 -0.41600000000000004 Q 0.492 -0.392 0.496 -0.34500000000000003 Q 0.5640000000000001 -0.442 0.659 -0.442 Q 0.748 -0.442 0.769 -0.373 L 0.769 -0.372 Q 0.774 -0.355 0.774 -0.335 Q 0.774 -0.28200000000000003 0.713 -0.115 Q 0.6950000000000001 -0.07100000000000001 0.6950000000000001 -0.044 Q 0.6950000000000001 -0.011 0.719 -0.011 Q 0.781 -0.011 0.8170000000000001 -0.121 L 0.8210000000000001 -0.135 Q 0.8260000000000001 -0.151 0.8310000000000001 -0.152 L 0.8310000000000001 -0.153 L 0.836 -0.153 Q 0.848 -0.153 0.848 -0.14300000000000002 Q 0.848 -0.126 0.8270000000000001 -0.08 Q 0.784 0.011 0.717 0.011 Q 0.666 0.011 0.644 -0.032 Q 0.635 -0.05 0.635 -0.07100000000000001 Q 0.635 -0.091 0.648 -0.126 Q 0.71 -0.29 0.71 -0.35000000000000003 Q 0.71 -0.42 0.656 -0.42 Q 0.5680000000000001 -0.42 0.51 -0.325 Q 0.494 -0.3 0.491 -0.28700000000000003 Q 0.488 -0.274 0.431 -0.046 Q 0.42 -0.003 0.406 0.006 L 0.405 0.007 L 0.404 0.007 Q 0.397 0.011 0.386 0.011 Q 0.361 0.006 0.357 -0.016 L 0.37 -0.075 L 0.39 -0.151 L 0.418 -0.267 Q 0.433 -0.323 0.433 -0.35000000000000003 Q 0.433 -0.42 0.379 -0.42 Q 0.289 -0.42 0.228 -0.32 Q 0.221 -0.309 0.216 -0.298 L 0.203 -0.248 Q 0.198 -0.225 0.186 -0.181 L 0.164 -0.091 Q 0.147 -0.022 0.145 -0.017 Q 0.136 0.009000000000000001 0.108 0.011 Q 0.083 0.006 0.079 -0.016 Q 0.079 -0.014 0.088 -0.059000000000000004 Z"/></g></g><g transform="scale(51,51)"><g transform="translate(11.607843137254902,8.23492156862745)"><path fill="rgb(0,0,0)" stroke="none" paint-order="stroke fill markers" d=" M 0.088 -0.059000000000000004 L 0.088 -0.059000000000000004 L 0.146 -0.29 Q 0.162 -0.354 0.162 -0.374 Q 0.162 -0.42 0.131 -0.42 Q 0.09 -0.42 0.064 -0.325 Q 0.061 -0.314 0.058 -0.301 Q 0.047 -0.279 0.041 -0.278 Q 0.029 -0.278 0.029 -0.28800000000000003 Q 0.029 -0.304 0.049 -0.36 L 0.049 -0.361 Q 0.049 -0.362 0.05 -0.362 L 0.05 -0.363 L 0.05 -0.364 L 0.059000000000000004 -0.385 Q 0.081 -0.425 0.10400000000000001 -0.435 Q 0.11800000000000001 -0.442 0.134 -0.442 Q 0.19 -0.442 0.215 -0.395 Q 0.224 -0.377 0.226 -0.355 Q 0.29 -0.442 0.382 -0.442 Q 0.468 -0.442 0.491 -0.376 Q 0.497 -0.358 0.497 -0.335 Q 0.497 -0.28400000000000003 0.436 -0.115 Q 0.418 -0.07100000000000001 0.418 -0.044 Q 0.418 -0.011 0.442 -0.011 Q 0.508 -0.011 0.544 -0.135 Q 0.549 -0.151 0.554 -0.152 L 0.554 -0.153 L 0.559 -0.153 Q 0.5710000000000001 -0.153 0.5710000000000001 -0.14300000000000002 Q 0.5710000000000001 -0.126 0.55 -0.08 Q 0.507 0.011 0.44 0.011 Q 0.389 0.011 0.367 -0.032 Q 0.358 -0.05 0.358 -0.07100000000000001 Q 0.358 -0.091 0.368 -0.117 Q 0.433 -0.292 0.433 -0.35000000000000003 Q 0.433 -0.42 0.379 -0.42 Q 0.289 -0.42 0.228 -0.32 Q 0.221 -0.309 0.216 -0.298 L 0.203 -0.248 Q 0.198 -0.225 0.186 -0.181 L 0.164 -0.091 Q 0.147 -0.022 0.145 -0.017 Q 0.136 0.009000000000000001 0.108 0.011 Q 0.083 0.006 0.079 -0.016 Q 0.079 -0.014 0.088 -0.059000000000000004 Z"/></g></g><g transform="scale(51,51)"><g transform="translate(10.137254901960784,10.921196078431372)"><path fill="rgb(0,0,0)" stroke="none" paint-order="stroke fill markers" d=" M 0.373 -0.378 Q 0.378 -0.41200000000000003 0.404 -0.42 Q 0.40900000000000003 -0.422 0.41500000000000004 -0.422 Q 0.441 -0.422 0.444 -0.395 Q 0.444 -0.389 0.437 -0.361 L 0.401 -0.221 Q 0.386 -0.158 0.379 -0.131 Q 0.366 -0.079 0.366 -0.057 Q 0.366 -0.011 0.396 -0.011 Q 0.434 -0.011 0.46 -0.091 Q 0.465 -0.108 0.47200000000000003 -0.135 Q 0.48 -0.152 0.486 -0.153 Q 0.498 -0.153 0.498 -0.14300000000000002 Q 0.498 -0.128 0.48 -0.073 Q 0.47400000000000003 -0.056 0.468 -0.044 Q 0.44 0.011 0.394 0.011 Q 0.338 0.011 0.313 -0.037 Q 0.306 -0.049 0.303 -0.064 Q 0.24 0.011 0.17300000000000001 0.011 Q 0.098 0.011 0.062 -0.057 Q 0.04 -0.097 0.04 -0.149 Q 0.04 -0.257 0.115 -0.34900000000000003 Q 0.185 -0.433 0.267 -0.441 Q 0.274 -0.442 0.281 -0.442 Q 0.342 -0.442 0.373 -0.378 M 0.308 -0.11900000000000001 L 0.308 -0.11900000000000001 L 0.358 -0.315 Q 0.361 -0.33 0.361 -0.332 Q 0.361 -0.353 0.343 -0.383 Q 0.321 -0.42 0.28200000000000003 -0.42 Q 0.23 -0.42 0.183 -0.352 Q 0.17400000000000002 -0.339 0.166 -0.324 Q 0.137 -0.266 0.117 -0.159 Q 0.111 -0.125 0.111 -0.105 Q 0.111 -0.037 0.149 -0.017 Q 0.16 -0.011 0.17500000000000002 -0.011 Q 0.231 -0.011 0.28800000000000003 -0.082 Q 0.302 -0.098 0.307 -0.115 L 0.307 -0.116 Q 0.308 -0.11800000000000001 0.308 -0.11900000000000001 Z"/></g></g><text fill="rgb(0,0,0)" stroke="none" font-family="geogebra-sans-serif, sans-serif" font-size="33px" font-style="normal" font-weight="normal" text-decoration="normal" x="460" y="605" text-anchor="start" dominant-baseline="alphabetic" fill-opacity="1">1</text><g transform="scale(51,51)"><g transform="translate(7,13.377450980392156)"><path fill="rgb(0,0,0)" stroke="none" paint-order="stroke fill markers" d=" M 0.645 -0.6950000000000001 L 0.645 -0.6950000000000001 L 0.591 -0.47600000000000003 Q 0.582 -0.457 0.5760000000000001 -0.456 Q 0.5640000000000001 -0.456 0.5640000000000001 -0.466 L 0.5680000000000001 -0.52 L 0.5680000000000001 -0.522 Q 0.5680000000000001 -0.66 0.452 -0.675 Q 0.439 -0.677 0.424 -0.677 Q 0.34600000000000003 -0.677 0.291 -0.614 Q 0.249 -0.5660000000000001 0.249 -0.511 Q 0.249 -0.451 0.298 -0.425 Q 0.304 -0.422 0.31 -0.42 Q 0.315 -0.419 0.377 -0.402 Q 0.46900000000000003 -0.378 0.487 -0.366 Q 0.495 -0.361 0.504 -0.352 Q 0.553 -0.306 0.553 -0.23500000000000001 Q 0.553 -0.14300000000000002 0.481 -0.064 Q 0.399 0.019 0.299 0.022 Q 0.183 0.022 0.13 -0.05 L 0.081 0.007 Q 0.068 0.022 0.063 0.022 Q 0.052000000000000005 0.022 0.052000000000000005 0.012 L 0.109 -0.213 L 0.109 -0.215 Q 0.111 -0.222 0.112 -0.223 Q 0.116 -0.227 0.122 -0.227 Q 0.134 -0.227 0.134 -0.216 L 0.132 -0.209 Q 0.126 -0.17300000000000001 0.126 -0.155 Q 0.126 -0.042 0.241 -0.016 Q 0.269 -0.009000000000000001 0.301 -0.009000000000000001 Q 0.38 -0.009000000000000001 0.436 -0.077 Q 0.481 -0.13 0.481 -0.193 Q 0.481 -0.271 0.40900000000000003 -0.294 L 0.389 -0.299 L 0.28200000000000003 -0.327 Q 0.216 -0.34600000000000003 0.19 -0.40700000000000003 Q 0.178 -0.436 0.178 -0.46900000000000003 Q 0.178 -0.56 0.254 -0.633 Q 0.33 -0.705 0.425 -0.705 Q 0.527 -0.705 0.5680000000000001 -0.633 L 0.616 -0.6900000000000001 Q 0.629 -0.705 0.634 -0.705 Q 0.645 -0.705 0.645 -0.6950000000000001 Z"/></g><g transform="translate(7.671,13.377450980392156)"><path fill="rgb(0,0,0)" stroke="none" paint-order="stroke fill markers" d=" M 0.331 0.24 L 0.331 0.24 Q 0.331 0.25 0.321 0.25 Q 0.309 0.25 0.268 0.209 Q 0.20600000000000002 0.147 0.165 0.062 Q 0.099 -0.074 0.099 -0.25 Q 0.099 -0.419 0.162 -0.555 Q 0.214 -0.666 0.294 -0.733 Q 0.315 -0.75 0.321 -0.75 Q 0.331 -0.75 0.331 -0.74 Q 0.331 -0.735 0.318 -0.723 Q 0.157 -0.559 0.157 -0.25 Q 0.157 0.058 0.314 0.218 Q 0.331 0.23500000000000001 0.331 0.24 Z"/></g><g transform="translate(8.06,13.377450980392156)"><path fill="rgb(0,0,0)" stroke="none" paint-order="stroke fill markers" d=" M 0.35000000000000003 -0.056 L 0.35000000000000003 -0.056 Q 0.298 0.011 0.231 0.011 Q 0.15 0.011 0.121 -0.048 Q 0.108 -0.074 0.108 -0.109 Q 0.108 -0.163 0.161 -0.305 Q 0.163 -0.312 0.166 -0.319 Q 0.183 -0.362 0.183 -0.387 Q 0.183 -0.42 0.158 -0.42 Q 0.10200000000000001 -0.42 0.067 -0.325 Q 0.066 -0.325 0.066 -0.324 L 0.066 -0.323 Q 0.061 -0.31 0.057 -0.296 Q 0.046 -0.279 0.041 -0.278 Q 0.029 -0.278 0.029 -0.28800000000000003 Q 0.029 -0.306 0.05 -0.35100000000000003 Q 0.094 -0.442 0.161 -0.442 Q 0.214 -0.442 0.23500000000000001 -0.397 Q 0.243 -0.38 0.243 -0.36 Q 0.243 -0.34 0.226 -0.297 Q 0.17200000000000001 -0.154 0.17200000000000001 -0.093 Q 0.17200000000000001 -0.011 0.234 -0.011 Q 0.297 -0.011 0.34 -0.08 Q 0.34600000000000003 -0.089 0.34800000000000003 -0.095 Q 0.37 -0.194 0.423 -0.396 Q 0.431 -0.431 0.462 -0.431 Q 0.487 -0.426 0.491 -0.404 Q 0.491 -0.406 0.47600000000000003 -0.337 Q 0.462 -0.28600000000000003 0.459 -0.269 L 0.431 -0.161 Q 0.41100000000000003 -0.074 0.41100000000000003 -0.057 Q 0.41100000000000003 -0.011 0.442 -0.011 Q 0.484 -0.011 0.511 -0.111 Q 0.514 -0.121 0.517 -0.135 Q 0.525 -0.152 0.531 -0.153 Q 0.543 -0.153 0.543 -0.14300000000000002 Q 0.543 -0.128 0.525 -0.073 Q 0.519 -0.056 0.513 -0.044 Q 0.486 0.011 0.439 0.011 Q 0.382 0.011 0.358 -0.037 Q 0.353 -0.046 0.35000000000000003 -0.056 Z"/></g><g transform="translate(8.632,13.377450980392156)"><path fill="rgb(0,0,0)" stroke="none" paint-order="stroke fill markers" d=" M 0.159 -0.717 L 0.159 0.217 Q 0.159 0.249 0.139 0.25 Q 0.11900000000000001 0.25 0.11900000000000001 0.217 L 0.11900000000000001 -0.717 Q 0.11900000000000001 -0.749 0.139 -0.75 Q 0.159 -0.75 0.159 -0.717 Z"/></g><g transform="translate(8.91,13.377450980392156)"><path fill="rgb(0,0,0)" stroke="none" paint-order="stroke fill markers" d=" M 0.468 -0.372 Q 0.468 -0.317 0.438 -0.218 Q 0.38 -0.024 0.277 0.006 Q 0.261 0.011 0.243 0.011 Q 0.152 0.011 0.122 -0.052000000000000005 Q 0.109 -0.078 0.109 -0.113 Q 0.109 -0.165 0.155 -0.289 L 0.166 -0.318 Q 0.183 -0.362 0.183 -0.388 Q 0.183 -0.42 0.158 -0.42 Q 0.10400000000000001 -0.42 0.069 -0.331 Q 0.062 -0.315 0.057 -0.296 Q 0.046 -0.279 0.041 -0.278 Q 0.029 -0.278 0.029 -0.28800000000000003 Q 0.029 -0.306 0.051000000000000004 -0.35100000000000003 Q 0.094 -0.442 0.161 -0.442 Q 0.214 -0.442 0.23500000000000001 -0.397 Q 0.243 -0.38 0.243 -0.36 Q 0.243 -0.339 0.231 -0.31 Q 0.177 -0.166 0.17300000000000001 -0.111 L 0.17300000000000001 -0.098 Q 0.17300000000000001 -0.018000000000000002 0.23700000000000002 -0.011 L 0.247 -0.011 Q 0.328 -0.011 0.387 -0.147 Q 0.422 -0.227 0.425 -0.28200000000000003 Q 0.425 -0.332 0.391 -0.364 Q 0.375 -0.38 0.375 -0.394 Q 0.375 -0.419 0.401 -0.435 Q 0.41200000000000003 -0.442 0.424 -0.442 Q 0.453 -0.442 0.464 -0.405 Q 0.468 -0.391 0.468 -0.372 Z"/></g><g transform="translate(9.431000000000001,13.377450980392156)"><path fill="rgb(0,0,0)" stroke="none" paint-order="stroke fill markers" d=" M 0.289 -0.25 L 0.289 -0.25 Q 0.289 -0.081 0.226 0.055 Q 0.17400000000000002 0.166 0.094 0.233 Q 0.073 0.25 0.067 0.25 Q 0.057 0.25 0.057 0.24 Q 0.057 0.23500000000000001 0.07 0.223 Q 0.231 0.059000000000000004 0.231 -0.25 Q 0.231 -0.555 0.081 -0.712 L 0.076 -0.717 Q 0.057 -0.735 0.057 -0.74 Q 0.057 -0.75 0.067 -0.75 Q 0.079 -0.75 0.12 -0.709 Q 0.182 -0.647 0.223 -0.562 Q 0.289 -0.426 0.289 -0.25 Z"/></g></g><g transform="scale(51,51)"><g transform="translate(5.627450980392157,10.627078431372547)"><path fill="rgb(0,0,0)" stroke="none" paint-order="stroke fill markers" d=" M 0.396 -0.38 L 0.396 -0.38 Q 0.368 -0.41600000000000004 0.31 -0.42 Q 0.245 -0.42 0.192 -0.354 Q 0.179 -0.338 0.169 -0.32 Q 0.129 -0.247 0.117 -0.148 Q 0.115 -0.132 0.115 -0.12 Q 0.115 -0.038 0.171 -0.017 Q 0.185 -0.011 0.20500000000000002 -0.011 Q 0.295 -0.011 0.367 -0.07100000000000001 Q 0.388 -0.088 0.405 -0.11 Q 0.41200000000000003 -0.12 0.418 -0.12 Q 0.427 -0.12 0.43 -0.107 Q 0.43 -0.096 0.396 -0.064 Q 0.313 0.011 0.203 0.011 Q 0.108 0.011 0.065 -0.065 Q 0.041 -0.106 0.041 -0.158 Q 0.041 -0.26 0.11900000000000001 -0.34700000000000003 Q 0.196 -0.433 0.291 -0.441 Q 0.3 -0.442 0.309 -0.442 Q 0.386 -0.442 0.41600000000000004 -0.395 Q 0.427 -0.377 0.427 -0.356 Q 0.427 -0.312 0.392 -0.296 Q 0.382 -0.292 0.371 -0.292 Q 0.341 -0.292 0.335 -0.318 Q 0.334 -0.322 0.334 -0.327 Q 0.334 -0.34900000000000003 0.352 -0.366 Q 0.366 -0.38 0.396 -0.38 Z"/></g></g><g transform="scale(51,51)"><g transform="translate(0.8431372549019608,4.57635294117647)"><path fill="rgb(0,0,0)" stroke="none" paint-order="stroke fill markers" d=" M 0.23900000000000002 -0.683 L 0.165 -0.382 Q 0.223 -0.442 0.28200000000000003 -0.442 Q 0.357 -0.442 0.394 -0.373 Q 0.41500000000000004 -0.333 0.41500000000000004 -0.28200000000000003 Q 0.41500000000000004 -0.176 0.341 -0.084 Q 0.272 0.001 0.189 0.01 Q 0.181 0.011 0.17400000000000002 0.011 Q 0.10200000000000001 0.011 0.067 -0.056 Q 0.047 -0.094 0.047 -0.146 Q 0.047 -0.18 0.063 -0.247 L 0.145 -0.5730000000000001 Q 0.159 -0.632 0.159 -0.635 Q 0.159 -0.646 0.145 -0.649 L 0.145 -0.649 Q 0.133 -0.652 0.109 -0.652 Q 0.08700000000000001 -0.652 0.085 -0.664 Q 0.085 -0.681 0.10400000000000001 -0.684 L 0.226 -0.6940000000000001 Q 0.23900000000000002 -0.6940000000000001 0.23900000000000002 -0.683 M 0.145 -0.305 L 0.123 -0.213 Q 0.107 -0.15 0.107 -0.112 Q 0.107 -0.026000000000000002 0.159 -0.013000000000000001 Q 0.166 -0.011 0.17400000000000002 -0.011 Q 0.227 -0.011 0.273 -0.081 Q 0.28300000000000003 -0.096 0.292 -0.114 Q 0.319 -0.171 0.337 -0.268 Q 0.343 -0.303 0.343 -0.326 Q 0.343 -0.406 0.294 -0.418 L 0.293 -0.419 Q 0.28700000000000003 -0.42 0.28 -0.42 Q 0.22 -0.42 0.16 -0.34 Q 0.152 -0.33 0.145 -0.305 Z"/></g></g><text fill="rgb(0,0,0)" stroke="none" font-family="geogebra-sans-serif, sans-serif" font-size="48px" font-style="normal" font-weight="normal" text-decoration="normal" x="806" y="417" text-anchor="start" dominant-baseline="alphabetic" fill-opacity="1">x</text><text fill="rgb(0,0,0)" stroke="none" font-family="geogebra-sans-serif, sans-serif" font-size="48px" font-style="normal" font-weight="normal" text-decoration="normal" x="300" y="114" text-anchor="start" dominant-baseline="alphabetic" fill-opacity="1">y</text><text fill="rgb(0,0,0)" stroke="none" font-family="geogebra-sans-serif, sans-serif" font-size="48px" font-style="normal" font-weight="normal" text-decoration="normal" x="355" y="359" text-anchor="start" dominant-baseline="alphabetic" fill-opacity="1">O</text></g></g></svg>